<svg xmlns="http://www.w3.org/2000/svg" xmlns:xlink="http://www.w3.org/1999/xlink" version="1.1" id="Camada_1" x="0px" y="0px" width="114px" height="114px" viewBox="0 8.808 100 82.382" enable-background="new 0 8.808 100 82.382" xml:space="preserve">
<path d="M92.165 46.646c-2.394-2.395-5.184-4.274-8.291-5.59c-3.223-1.362-6.64-2.053-10.161-2.053H26.095 c-3.52 0-6.938 0.69-10.159 2.053c-3.108 1.315-5.898 3.195-8.292 5.59c-2.395 2.394-4.274 5.184-5.59 8.3 C0.692 58.2 0 61.6 0 65.096c0 3.5 0.7 6.9 2.1 10.159c1.315 3.1 3.2 5.9 5.6 8.3 c2.394 2.4 5.2 4.3 8.3 5.588c3.222 1.4 6.6 2.1 10.2 2.055c4.114 0 8.214-0.983 11.858-2.847 c2.447-1.25 4.7-2.9 6.645-4.854h10.61c1.946 2 4.2 3.6 6.6 4.854c3.645 1.9 7.7 2.8 11.9 2.8 c3.521 0 6.938-0.692 10.16-2.055c3.107-1.314 5.896-3.194 8.29-5.588c2.395-2.396 4.276-5.185 5.59-8.293 c1.362-3.221 2.053-6.638 2.053-10.159c0-3.52-0.689-6.937-2.053-10.158C96.44 51.8 94.6 49 92.2 46.646z M73.713 84.3 c-6.296 0-11.888-3.025-15.4-7.701H41.495c-3.512 4.676-9.103 7.701-15.4 7.701c-10.631 0-19.249-8.617-19.249-19.25 c0-10.631 8.619-19.25 19.249-19.25h47.618c10.633 0 19.3 8.6 19.3 19.25C92.963 75.7 84.3 84.3 73.7 84.348z"/>
<circle cx="73.7" cy="72.8" r="3.8"/>
<circle cx="81.4" cy="65.1" r="3.9"/>
<circle cx="66" cy="65.1" r="3.9"/>
<circle cx="73.7" cy="57.4" r="3.8"/>
<path d="M35.72 61.247h-5.775v-5.773c0-1.062-0.862-1.925-1.924-1.925h-3.85c-1.063 0-1.925 0.862-1.925 1.925v5.773h-5.774 c-1.063 0-1.924 0.862-1.924 1.926v3.85c0 1.1 0.9 1.9 1.9 1.926h5.774v5.773c0 1.1 0.9 1.9 1.9 1.925h3.85 c1.063 0 1.924-0.86 1.924-1.925v-5.773h5.775c1.063 0 1.925-0.862 1.925-1.926v-3.85C37.645 62.1 36.8 61.2 35.7 61.247z"/>
<path d="M64.052 26.377h18.379c9.687 0 17.569-7.881 17.569-17.569h-6.845c0 5.914-4.812 10.725-10.725 10.725H64.052 c-9.688 0-17.569 7.881-17.569 17.569h6.844C53.326 31.2 58.1 26.4 64.1 26.377z"/>
</svg>
